<?xml version="1.0" standalone="no"?>
<!DOCTYPE svg PUBLIC "-//W3C//DTD SVG 20010904//EN"
 "http://www.w3.org/TR/2001/REC-SVG-20010904/DTD/svg10.dtd">
<svg version="1.0" xmlns="http://www.w3.org/2000/svg"
 width="260.000000pt" height="260.000000pt" viewBox="0 0 260.000000 260.000000"
 preserveAspectRatio="xMidYMid meet">
<metadata>
Created by potrace 1.14, written by Peter Selinger 2001-2017
</metadata>
<g transform="translate(0.000000,260.000000) scale(0.100000,-0.100000)"
fill="#000000" stroke="none">
<path d="M1211 2114 c-89 -45 -138 -140 -129 -256 l3 -47 225 -3 225 -3 -1 85
c0 124 -36 185 -134 229 -63 29 -124 27 -189 -5z"/>
<path d="M1080 1690 l0 -30 230 0 230 0 0 30 0 30 -230 0 -230 0 0 -30z"/>
<path d="M1084 1581 c-2 -2 -4 -162 -4 -356 l0 -351 87 -154 c48 -85 98 -176
112 -202 14 -26 28 -48 31 -48 3 0 56 90 118 200 l112 199 0 361 0 360 -50 0
-50 0 0 -339 0 -340 26 -20 26 -20 -59 -111 -58 -110 -63 2 -64 3 -60 108 -60
107 26 21 26 20 0 334 0 333 -46 4 c-25 2 -47 1 -50 -1z"/>
<path d="M1257 1584 c-4 -4 -7 -152 -7 -328 0 -356 2 -366 60 -366 59 0 61 11
58 371 l-3 324 -50 3 c-28 2 -54 0 -58 -4z"/>
</g>
</svg>
